<svg width="39" height="38" viewBox="0 0 39 38" fill="none" xmlns="http://www.w3.org/2000/svg">
<path fill-rule="evenodd" clip-rule="evenodd" d="M4.76952 18.9698H2.04907C1.61286 18.9698 1.20033 18.7626 0.946692 18.4128C0.693052 18.0631 0.628828 17.6155 0.772546 17.2078L4.99942 5.2748C5.18709 4.73941 5.70108 4.383 6.27762 4.383H11.8707V1.73086C11.8707 0.998187 12.476 0.404785 13.2233 0.404785H26.0745C26.8202 0.404785 27.4254 0.998187 27.4254 1.73086V4.383H33.0068C33.5817 4.383 34.094 4.73938 34.2817 5.2748L38.5102 17.2078C38.6539 17.6155 38.588 18.0631 38.3344 18.4128C38.0808 18.7626 37.6699 18.9698 37.232 18.9698H34.5285V36.2087C34.5285 36.9414 33.9215 37.5348 33.1742 37.5348H6.12385C5.37484 37.5348 4.76956 36.9414 4.76956 36.2087L4.76952 18.9698ZM10.3509 7.03341H7.23991L3.95137 16.3176H7.06405L10.3509 7.03341ZM24.7205 4.38292V3.05684H14.5758V4.38292H24.7205ZM28.9457 16.3176H35.3317C35.3317 16.3176 32.6772 8.82367 32.1379 7.30197L28.9457 16.3176ZM29.3701 7.03336H22.7252L19.4367 16.3176H26.0815L29.3701 7.03336ZM27.0876 34.8826H31.8219V18.9697H7.47505V34.8826H12.2094V29.5783C12.2094 28.8456 12.8147 28.2522 13.562 28.2522H25.7371C26.4828 28.2522 27.0881 28.8456 27.0881 29.5783L27.0876 34.8826ZM14.9142 34.8826H24.3824V30.906H14.9142V34.8826ZM19.8614 7.03336H13.2235H13.2151L9.92821 16.3176H16.5731L19.8614 7.03336Z" fill="#FF0000"/>
</svg>
